<svg width="114" height="43" viewBox="0 0 114 43" fill="none" xmlns="http://www.w3.org/2000/svg">
<g clip-path="url(#clip0_197_3370)">
<path d="M0 36.0249L7.18036 27.0146H0.52101V25.6872H9.12219V27.0066L1.90316 35.9703H9.12219V37.2977H0V36.0249Z" fill="#3CBB96"/>
<path d="M17.6424 25.6872H19.3885C20.0893 27.6202 20.79 29.5543 21.493 31.4885C22.1961 33.4214 22.898 35.3578 23.5976 37.2977H21.9311L20.7548 33.805H16.0873C16.0714 33.8471 16.0327 33.9553 15.969 34.1329C15.9064 34.3093 15.8302 34.52 15.7438 34.7658C15.6573 35.0106 15.5641 35.2736 15.4639 35.5513C15.3638 35.8314 15.2706 36.0932 15.183 36.338C15.0965 36.5827 15.0214 36.7945 14.9577 36.9697C14.8952 37.1473 14.8554 37.2567 14.8394 37.2988H13.2832L17.6424 25.6872ZM20.2725 32.579C20.2463 32.4959 20.202 32.365 20.1382 32.1874C20.0745 32.0109 20.0017 31.8015 19.921 31.5601C19.839 31.3177 19.7481 31.0547 19.6479 30.7735C19.5479 30.4912 19.4477 30.2043 19.3476 29.9129C19.2475 29.6203 19.1496 29.3335 19.0519 29.0511C18.954 28.7688 18.8664 28.5093 18.7868 28.2725C18.7083 28.0346 18.6378 27.8297 18.5775 27.6555C18.5172 27.4813 18.4728 27.3572 18.4466 27.2844C18.4159 27.3686 18.3658 27.5007 18.301 27.6794C18.2351 27.8581 18.1577 28.0687 18.0679 28.3123C17.978 28.5548 17.8813 28.8189 17.7755 29.1035C17.6697 29.3881 17.5639 29.675 17.4559 29.9641C17.3477 30.2544 17.2431 30.5402 17.1396 30.8225C17.0372 31.1048 16.9439 31.3632 16.8597 31.6011C16.7755 31.8379 16.7016 32.0428 16.639 32.2147C16.5765 32.3855 16.531 32.5073 16.5048 32.5813H20.2725V32.579Z" fill="#3CBB96"/>
<path d="M31.9509 25.6872H33.6971C34.3979 27.6202 35.0986 29.5543 35.8016 31.4885C36.5047 33.4214 37.2066 35.3578 37.9062 37.2977H36.2396L35.0634 33.805H30.3958C30.38 33.8471 30.3413 33.9553 30.2775 34.1329C30.2139 34.3105 30.1388 34.52 30.0524 34.7658C29.9659 35.0106 29.8726 35.2736 29.7724 35.5513C29.6724 35.8314 29.5791 36.0932 29.4915 36.338C29.405 36.5827 29.3299 36.7945 29.2663 36.9697C29.2037 37.1473 29.1639 37.2567 29.148 37.2988H27.5918L31.9509 25.6872ZM34.581 32.579C34.5548 32.4959 34.5105 32.365 34.4468 32.1874C34.383 32.0109 34.3103 31.8015 34.2295 31.5601C34.1476 31.3177 34.0566 31.0547 33.9565 30.7735C33.8564 30.4912 33.7563 30.2043 33.6562 29.9129C33.556 29.6203 33.4582 29.3335 33.3604 29.0511C33.2626 28.7688 33.175 28.5093 33.0954 28.2725C33.0169 28.0346 32.9463 27.8297 32.886 27.6555C32.8257 27.4813 32.7813 27.3572 32.7552 27.2844C32.7245 27.3686 32.6744 27.5007 32.6096 27.6794C32.5436 27.8581 32.4663 28.0687 32.3764 28.3123C32.2865 28.5548 32.1899 28.8189 32.084 29.1035C31.9783 29.3881 31.8724 29.675 31.7644 29.9641C31.6563 30.2544 31.5516 30.5402 31.4482 30.8225C31.3457 31.1048 31.2524 31.3632 31.1683 31.6011C31.0841 31.8379 31.0101 32.0428 30.9476 32.2147C30.885 32.3855 30.8396 32.5073 30.8133 32.5813H34.581V32.579Z" fill="#3CBB96"/>
<path d="M43.0273 25.6872H51.4704V27.0545H44.5039V30.6586H50.9414V31.9472H44.5039V35.9703H51.5887V37.2977H43.0273V25.6872Z" fill="#3CBB96"/>
<path d="M57.377 25.6872H62.7406C64.0203 25.6872 64.9759 25.9547 65.6073 26.4886C66.2397 27.0236 66.5549 27.7921 66.5549 28.7927C66.5549 29.4826 66.4081 30.0541 66.1123 30.5049C65.8178 30.9545 65.4014 31.32 64.8645 31.6C65.0965 31.6945 65.299 31.8026 65.4731 31.9233C65.6471 32.0451 65.7938 32.1908 65.9156 32.3628C66.0373 32.5346 66.1317 32.7362 66.1999 32.9706C66.2682 33.2063 66.3103 33.4806 66.3262 33.7971L66.3808 35.3544C66.3911 35.6287 66.4093 35.8632 66.4354 36.0579C66.4616 36.2526 66.5003 36.4188 66.5504 36.5554C66.6003 36.6931 66.6629 36.8036 66.7357 36.8878C66.8097 36.972 66.8961 37.0369 66.9963 37.0848V37.2977H65.1238C65.0919 37.2339 65.0658 37.1702 65.0453 37.1041C65.0237 37.0381 65.0055 36.9607 64.9907 36.8707C64.9748 36.7808 64.9611 36.667 64.9509 36.5315C64.9407 36.3938 64.9304 36.223 64.9202 36.0181L64.8258 34.0737C64.8041 33.7527 64.7506 33.4783 64.6642 33.2507C64.5778 33.0252 64.4458 32.8397 64.2695 32.6974C64.0931 32.5551 63.8622 32.4526 63.579 32.39C63.2946 32.3262 62.9419 32.2944 62.5199 32.2944H58.8945V37.2977H57.3781V25.6872H57.377ZM62.5745 31.0308C62.9476 31.0308 63.2855 30.9967 63.5858 30.9283C63.8849 30.86 64.1432 30.7462 64.3559 30.5834C64.5687 30.4229 64.7336 30.21 64.8497 29.9436C64.9645 29.6773 65.0226 29.3483 65.0226 28.9521C65.0226 28.2828 64.8428 27.7876 64.4811 27.4665C64.1205 27.1455 63.5551 26.9849 62.7861 26.9849H58.8922V31.0319H62.5745V31.0308Z" fill="#3CBB96"/>
<path d="M10.408 14.9113V16.9899L10.0531 17.3702H7.92471C7.78934 18.7909 7.1523 19.9395 6.01132 20.8183C4.87033 21.6972 3.35508 22.2391 1.4633 22.4417L1.41211 19.6264C2.64524 19.491 3.57919 19.187 4.21282 18.7135C4.84644 18.2399 5.16268 17.6058 5.16268 16.8124V7.04956H7.94974V14.58H10.1032L10.408 14.9113Z" fill="#363B7C"/>
<path d="M9.92453 17.3715L9.44336 17.1688V14.76L9.92453 14.5824H16.5634L17.0446 14.8613V17.0926L16.5634 17.3715H9.92453Z" fill="#363B7C"/>
<path d="M16.5632 17.3715L16.082 17.1688V14.76L16.5632 14.5824H23.202L23.6833 14.8613V17.0926L23.202 17.3715H16.5632Z" fill="#363B7C"/>
<path d="M23.2019 17.3715L22.7207 17.1688V14.76L23.2019 14.5824H29.8407L30.322 14.8613V17.0926L29.8407 17.3715H23.2019Z" fill="#363B7C"/>
<path d="M29.8405 17.3715L29.3594 17.1688V14.76L29.8405 14.5824H36.4794L36.9606 14.8613V17.0926L36.4794 17.3715H29.8405Z" fill="#363B7C"/>
<path d="M36.4793 17.3715L35.998 17.1688V14.76L36.4793 14.5824H43.1181L43.5993 14.8613V17.0926L43.1181 17.3715H36.4793Z" fill="#363B7C"/>
<path d="M43.1179 17.3715L42.6367 17.1688V14.76L43.1179 14.5824H49.7568L50.238 14.8613V17.0926L49.7568 17.3715H43.1179Z" fill="#363B7C"/>
<path d="M49.2754 16.9904V14.9117L49.7566 14.5816H52.4935V7.05118H55.1032V16.6614C55.1032 16.8641 55.0361 17.0326 54.9007 17.1681C54.7653 17.3035 54.5969 17.3707 54.3933 17.3707H49.7566L49.2754 16.9904ZM56.0405 3.22163V4.69243H50.4152V3.22163H51.6563C51.5892 2.96777 51.555 2.70595 51.555 2.43501C51.555 1.65749 51.8759 1.05756 52.5175 0.634079C53.159 0.211737 53.8609 0 54.6209 0H55.2544V1.47079H54.6209C54.1476 1.47079 53.7506 1.57667 53.4298 1.78841C53.1089 2.00015 52.9486 2.28247 52.9486 2.63764C52.9486 2.82434 52.9998 3.01786 53.1011 3.2205H56.0405V3.22163Z" fill="#363B7C"/>
<path d="M57.8418 2.259H60.6288V17.3723H57.8418V2.259Z" fill="#363B7C"/>
<path d="M66.6599 16.8121C66.6599 18.3671 66.0854 19.6398 64.9364 20.6279C63.7874 21.6172 62.1994 22.2217 60.1722 22.4414L60.1211 19.6262C61.3542 19.4907 62.2881 19.1867 62.9218 18.7132C63.5554 18.2396 63.8716 17.6055 63.8716 16.8121V7.04925H66.6587V16.8121H66.6599ZM64.3039 4.28525C64.0332 4.01545 63.899 3.68532 63.899 3.29599C63.899 2.9078 64.0344 2.58223 64.3039 2.32039C64.5735 2.05857 64.9034 1.92651 65.2925 1.92651C65.6803 1.92651 66.0058 2.05857 66.2685 2.32039C66.5302 2.58336 66.661 2.9078 66.661 3.29599C66.661 3.68532 66.5302 4.01545 66.2685 4.28525C66.0069 4.55618 65.6815 4.69052 65.2925 4.69052C64.9034 4.69052 64.5735 4.55618 64.3039 4.28525Z" fill="#363B7C"/>
<path d="M84.8924 17.5505C84.8924 11.7003 89.0824 6.92253 95.1226 6.92253C101.163 6.92253 105.45 11.7982 105.45 17.6484H113.294V17.5505C113.294 7.84917 105.743 0 95.22 0C84.6979 0 77.0488 7.94708 77.0488 17.6484H84.8924V17.5505Z" fill="#363B7C"/>
<path d="M110.609 27.572L100.421 37.789L95.215 42.9994L95.1931 42.9572L95.1712 42.9994L87.3301 35.1525L91.1364 31.077L92.6334 32.5763L95.1931 35.1377L97.7528 32.5752L102.729 27.5709L110.609 27.572Z" fill="#3CBB96"/>
<path d="M84.8434 33.0164L88.7623 28.8078L84.9584 24.8474H83.3931H77.0488" fill="#F591A0"/>
<path d="M112.135 22.7939C112.135 23.296 110.894 24.4025 108.411 26.1146C107.626 25.2141 107.086 24.6154 106.79 24.3194C105.954 23.4702 104.672 23.6079 104.312 23.5943L105.132 22.8122L108.874 19.1056C111.047 20.7027 112.135 21.9322 112.135 22.7939Z" fill="#F591A0"/>
<path d="M95.1718 26.0716C99.1022 26.0716 102.288 22.8831 102.288 18.9499C102.288 15.0166 99.1022 11.8281 95.1718 11.8281C91.2414 11.8281 88.0547 15.0166 88.0547 18.9499C88.0547 22.8831 91.2414 26.0716 95.1718 26.0716Z" fill="#363B7C"/>
<path d="M99.2176 19.1508L98.2907 21.028C96.1116 21.275 93.7439 21.8055 91.4709 23.1511L91.2815 22.961L92.1339 21.5767C92.4548 21.2739 92.7959 20.97 93.2125 20.8185V20.7241C92.0181 20.3074 91.1289 19.5868 91.1289 18.4496C91.1289 17.3499 91.8112 16.4016 92.3969 15.8517C93.3265 14.9797 94.6533 14.4299 95.6547 14.4299C96.6605 14.4299 97.4936 15.0367 97.4936 15.9087C97.4936 16.4779 97.2656 17.0653 96.622 17.672H96.508C96.3764 17.2929 96.1484 16.857 95.9572 16.6099C95.7117 16.3071 95.4092 16.1546 94.954 16.1546C94.3858 16.1546 93.6834 16.4392 93.3256 16.6851C93.0231 16.8751 92.7951 17.121 92.7951 17.3488C92.7951 17.7847 93.0424 18.2207 93.515 18.5429C94.1218 18.9595 95.0488 19.301 95.9572 19.301C97.0385 19.301 98.289 19.1497 99.1405 18.9983L99.2176 19.1508Z" fill="#3CBB96"/>
</g>
<defs>
<clipPath id="clip0_197_3370">
<rect width="114" height="43" fill="white"/>
</clipPath>
</defs>
</svg>
